<svg width="97" height="13" viewBox="0 0 97 13" fill="none" xmlns="http://www.w3.org/2000/svg">
<path d="M48.8622 0.0351562L46.0563 6.8801H45.9893L45.8543 0.0351562H41.8309L39.0259 6.8801H38.9579V0.0351562H35.5267H34.817H31.4537L28.6478 6.8801H28.5808L28.4458 0.0351562H24.4224L21.6174 6.8801H21.5494V0.0351562H18.1182H17.4085H14.0452L11.2393 6.8801H11.1723L11.0364 0.0351562H7.01388L4.20891 6.8801H4.14095V0.0351562H0L0.929165 12.0017H4.90118L8.045 5.10527H8.11296L8.45084 12.0017H12.4733L17.5085 1.32744L18.3386 12.0017H22.3097L25.4535 5.10527H25.5215L25.8593 12.0017H29.8818L34.918 1.32744L35.7471 12.0017H39.7191L42.862 5.10527H42.9299L43.2678 12.0017H47.2903L52.9362 0.0351562H48.8622Z" fill="#00D06C"/>
<path d="M92.0462 0.0351562L89.2403 6.8801H89.1723L89.0374 0.0351562H85.0149L82.2089 6.8801H82.141V0.0351562H78L78.9301 12.0017H82.9021L86.046 5.10527H86.113L86.4508 12.0017H90.4743L96.1192 0.0351562H92.0462Z" fill="#00D06C"/>
<path d="M65.3819 7.6115e-05C58.336 0.0165817 52.125 2.71184 51.5085 6.02071C50.892 9.32959 56.1038 11.9996 63.1498 11.9831C70.1957 11.9666 76.4066 9.27134 77.0232 5.96246C77.6397 2.65358 72.4269 -0.0164294 65.3819 7.6115e-05ZM66.2538 2.16619C66.9043 1.37683 67.6859 1.04187 67.9985 1.41761C68.3111 1.79335 68.0373 2.73708 67.3868 3.52644C66.7354 4.31579 65.9547 4.65075 65.6411 4.27598C65.3285 3.90024 65.6023 2.95651 66.2538 2.16716M61.1633 2.16716C61.8138 1.3778 62.5954 1.04284 62.908 1.41858C63.2206 1.79433 62.9468 2.73805 62.2963 3.52741C61.6448 4.31676 60.8642 4.65173 60.5516 4.27695C60.239 3.90121 60.5128 2.95748 61.1642 2.16813M73.0968 5.74303C72.6511 8.13634 68.1577 10.0986 63.0604 10.0986C58.7544 10.0986 54.1931 8.17906 54.6397 5.78575C55.0854 3.39148 55.4611 5.99741 63.0459 5.99741C72.1288 5.99741 73.5424 3.34973 73.0968 5.744" fill="#00D06C"/>
</svg>
