<svg width="22" height="11" viewBox="0 0 22 11" fill="none" xmlns="http://www.w3.org/2000/svg">
<path d="M0.837149 8.05762C0.830801 9.40332 1.85277 10.1523 3.16039 10.1523C4.30297 10.1523 4.93773 9.57471 5.20434 9.06055H5.25512V10H6.57543V5.41699C6.56908 3.41748 4.96947 3.01758 3.87133 3.01758C2.23998 3.01758 1.17357 3.84277 1.05297 4.98535H2.39867C2.53832 4.47754 3.02074 4.10938 3.82055 4.10938C4.74096 4.10938 5.22338 4.56006 5.21703 5.34082L5.22338 5.89307C4.906 5.90576 3.87133 5.96289 3.4143 5.98828C2.17016 6.07715 0.830801 6.4834 0.837149 8.05762ZM2.15746 8.07031C2.15746 7.39111 2.71605 7.05469 3.60473 6.99121C3.92846 6.97217 4.91234 6.90234 5.22338 6.8833L5.22973 7.51172C5.22973 8.33057 4.56957 9.06689 3.46508 9.07324C2.70336 9.06689 2.15746 8.73047 2.15746 8.07031ZM8.06738 10H9.3877V8.9209H9.48926C9.74316 9.37158 10.2319 10.1333 11.4824 10.1396C13.1519 10.1333 14.3706 8.79395 14.377 6.57227C14.3706 4.3252 13.1392 3.01758 11.4697 3.01758C10.1938 3.01758 9.73682 3.79199 9.48926 4.22363H9.41309V0.808594H8.06738V10ZM9.3877 6.54688C9.3877 5.1123 10.0161 4.1665 11.1777 4.17285C12.3901 4.1665 12.9932 5.18848 12.9932 6.54688C12.9932 7.93066 12.3711 8.97803 11.1777 8.98438C10.0352 8.97803 9.3877 7.99414 9.3877 6.54688ZM18.3826 10.1396C20.0076 10.1396 21.0676 9.15576 21.2136 7.81641H19.8933C19.7219 8.55908 19.1506 8.99072 18.3826 8.98438C17.2463 8.99072 16.5164 8.05762 16.5164 6.54688C16.5164 5.08057 17.2654 4.15381 18.3826 4.14746C19.2395 4.15381 19.7537 4.69336 19.8933 5.34082H21.2136C21.0676 3.94434 19.9314 3.01758 18.3572 3.01758C16.4148 3.01758 15.1516 4.48389 15.158 6.58496C15.1516 8.66064 16.3704 10.1396 18.3826 10.1396Z" fill="#AAAAAA"/>
</svg>
