<svg width="10" height="8" viewBox="0 0 10 8" fill="none" xmlns="http://www.w3.org/2000/svg">
<path d="M9.47334 0.806574C9.41136 0.744088 9.33763 0.694492 9.25639 0.660646C9.17515 0.6268 9.08802 0.609375 9.00001 0.609375C8.912 0.609375 8.82486 0.6268 8.74362 0.660646C8.66238 0.694492 8.58865 0.744088 8.52667 0.806574L3.56001 5.77991L1.47334 3.68657C1.40899 3.62441 1.33303 3.57554 1.2498 3.54274C1.16656 3.50993 1.07768 3.49385 0.988222 3.49539C0.898768 3.49694 0.810495 3.51609 0.728443 3.55176C0.646391 3.58742 0.572166 3.63889 0.510007 3.70324C0.447848 3.76759 0.398972 3.84355 0.36617 3.92679C0.333367 4.01002 0.31728 4.09891 0.318828 4.18836C0.320375 4.27781 0.339527 4.36609 0.375189 4.44814C0.410852 4.53019 0.462326 4.60441 0.526674 4.66657L3.08667 7.22657C3.14865 7.28906 3.22238 7.33866 3.30362 7.3725C3.38486 7.40635 3.472 7.42377 3.56001 7.42377C3.64802 7.42377 3.73515 7.40635 3.81639 7.3725C3.89763 7.33866 3.97137 7.28906 4.03334 7.22657L9.47334 1.78657C9.54101 1.72415 9.59502 1.64838 9.63195 1.56404C9.66889 1.47971 9.68796 1.38864 9.68796 1.29657C9.68796 1.20451 9.66889 1.11344 9.63195 1.0291C9.59502 0.94477 9.54101 0.869002 9.47334 0.806574V0.806574Z" fill="white"/>
</svg>
