<svg width="21" height="20" viewBox="0 0 21 20" fill="none" xmlns="http://www.w3.org/2000/svg">
<path d="M14.8752 7.64076C14.7113 7.48556 14.4895 7.39844 14.2584 7.39844C14.0272 7.39844 13.8054 7.48556 13.6415 7.64076L10.5002 10.5908L7.40273 7.64076C7.23879 7.48556 7.01702 7.39844 6.78585 7.39844C6.55469 7.39844 6.33292 7.48556 6.16898 7.64076C6.08697 7.71823 6.02187 7.8104 5.97745 7.91195C5.93303 8.0135 5.91016 8.12242 5.91016 8.23243C5.91016 8.34244 5.93303 8.45136 5.97745 8.55291C6.02187 8.65446 6.08697 8.74663 6.16898 8.8241L9.87898 12.3574C9.96032 12.4355 10.0571 12.4975 10.1637 12.5398C10.2704 12.5821 10.3847 12.6039 10.5002 12.6039C10.6157 12.6039 10.7301 12.5821 10.8367 12.5398C10.9434 12.4975 11.0401 12.4355 11.1215 12.3574L14.8752 8.8241C14.9572 8.74663 15.0223 8.65446 15.0668 8.55291C15.1112 8.45136 15.1341 8.34244 15.1341 8.23243C15.1341 8.12242 15.1112 8.0135 15.0668 7.91195C15.0223 7.8104 14.9572 7.71823 14.8752 7.64076Z" fill="#AAAAAA"/>
</svg>
