<svg width="17" height="16" viewBox="0 0 17 16" fill="none" xmlns="http://www.w3.org/2000/svg">
<path d="M15.3488 2.1668C14.4603 1.28739 13.2866 0.75453 12.0397 0.664373C10.7928 0.574215 9.55468 0.932699 8.54883 1.67514C7.48855 0.886502 6.16883 0.528897 4.85543 0.674336C3.54204 0.819774 2.33253 1.45745 1.47048 2.45896C0.608423 3.46046 0.157853 4.7514 0.209502 6.07182C0.261151 7.39223 0.811182 8.64403 1.74883 9.57514L6.74883 14.6168C7.21759 15.085 7.853 15.3479 8.5155 15.3479C9.178 15.3479 9.81342 15.085 10.2822 14.6168L15.2822 9.57514C15.7746 9.09401 16.1671 8.52031 16.4371 7.887C16.7071 7.25369 16.8493 6.57327 16.8555 5.88483C16.8617 5.19639 16.7318 4.51352 16.4732 3.87545C16.2147 3.23739 15.8325 2.65672 15.3488 2.1668ZM14.1738 8.38347L9.17383 13.3835C9.09636 13.4616 9.0042 13.5236 8.90265 13.5659C8.8011 13.6082 8.69218 13.63 8.58217 13.63C8.47216 13.63 8.36324 13.6082 8.26169 13.5659C8.16014 13.5236 8.06797 13.4616 7.9905 13.3835L2.9905 8.38347C2.33697 7.71543 1.97101 6.81803 1.97101 5.88347C1.97101 4.94892 2.33697 4.05152 2.9905 3.38347C3.65646 2.72596 4.55464 2.35728 5.4905 2.35728C6.42636 2.35728 7.32454 2.72596 7.9905 3.38347C8.06797 3.46158 8.16014 3.52357 8.26169 3.56588C8.36324 3.60819 8.47216 3.62997 8.58217 3.62997C8.69218 3.62997 8.8011 3.60819 8.90265 3.56588C9.0042 3.52357 9.09636 3.46158 9.17383 3.38347C9.8398 2.72596 10.738 2.35728 11.6738 2.35728C12.6097 2.35728 13.5079 2.72596 14.1738 3.38347C14.8324 4.05226 15.2015 4.95321 15.2015 5.8918C15.2015 6.8304 14.8324 7.73135 14.1738 8.40014V8.38347Z" fill="#04C669"/>
</svg>
