<svg width="16" height="16" viewBox="0 0 16 16" fill="none" xmlns="http://www.w3.org/2000/svg">
<path d="M14.4733 6.19329L11.8066 3.52663C11.7444 3.46447 11.6706 3.41516 11.5894 3.38152C11.5082 3.34788 11.4212 3.33057 11.3333 3.33057C11.1557 3.33057 10.9855 3.40109 10.8599 3.52663C10.7344 3.65216 10.6639 3.82243 10.6639 3.99996C10.6639 4.1775 10.7344 4.34776 10.8599 4.47329L12.3933 5.99996H4.6666C4.48979 5.99996 4.32022 6.0702 4.19519 6.19522C4.07017 6.32025 3.99993 6.48982 3.99993 6.66663C3.99993 6.84344 4.07017 7.01301 4.19519 7.13803C4.32022 7.26306 4.48979 7.33329 4.6666 7.33329H13.9999C14.1315 7.33264 14.26 7.29304 14.3692 7.21948C14.4783 7.14592 14.5632 7.04171 14.6133 6.91996C14.6643 6.79855 14.6783 6.66474 14.6533 6.53542C14.6284 6.40609 14.5658 6.28704 14.4733 6.19329ZM11.3333 8.66663H1.99993C1.86831 8.66728 1.73984 8.70689 1.63069 8.78044C1.52154 8.854 1.43661 8.95822 1.3866 9.07996C1.33554 9.20137 1.3216 9.33518 1.34651 9.4645C1.37143 9.59383 1.43409 9.71288 1.5266 9.80663L4.19326 12.4733C4.25524 12.5358 4.32897 12.5854 4.41021 12.6192C4.49145 12.6531 4.57859 12.6705 4.6666 12.6705C4.7546 12.6705 4.84174 12.6531 4.92298 12.6192C5.00422 12.5854 5.07795 12.5358 5.13993 12.4733C5.20242 12.4113 5.25201 12.3376 5.28586 12.2563C5.3197 12.1751 5.33713 12.088 5.33713 12C5.33713 11.912 5.3197 11.8248 5.28586 11.7436C5.25201 11.6623 5.20242 11.5886 5.13993 11.5266L3.6066 9.99996H11.3333C11.5101 9.99996 11.6796 9.92972 11.8047 9.8047C11.9297 9.67968 11.9999 9.51011 11.9999 9.33329C11.9999 9.15648 11.9297 8.98691 11.8047 8.86189C11.6796 8.73687 11.5101 8.66663 11.3333 8.66663Z" fill="#AAAAAA"/>
</svg>
